<mxfile host="app.diagrams.net" modified="2023-10-17T07:14:22.568Z" agent="Mozilla/5.0 (Macintosh; Intel Mac OS X 10_15_7) AppleWebKit/605.1.15 (KHTML, like Gecko) Version/16.6 Safari/605.1.15" etag="ha3095e8wSISncPBWmtk" version="22.0.4" type="device">
  <diagram name="Страница — 1" id="wq1eMXr5XxTBFGPfX-8k">
    <mxGraphModel dx="1434" dy="827" grid="1" gridSize="10" guides="1" tooltips="1" connect="1" arrows="1" fold="1" page="1" pageScale="1" pageWidth="827" pageHeight="1169" math="0" shadow="0">
      <root>
        <mxCell id="0" />
        <mxCell id="1" parent="0" />
        <mxCell id="I8Duu_z_-HwBfJOyVTgj-33" style="edgeStyle=orthogonalEdgeStyle;rounded=0;orthogonalLoop=1;jettySize=auto;html=1;exitX=0.5;exitY=0.5;exitDx=0;exitDy=25;exitPerimeter=0;entryX=0.5;entryY=0;entryDx=0;entryDy=0;endArrow=none;endFill=0;" edge="1" parent="1" source="I8Duu_z_-HwBfJOyVTgj-34" target="I8Duu_z_-HwBfJOyVTgj-36">
          <mxGeometry relative="1" as="geometry" />
        </mxCell>
        <mxCell id="I8Duu_z_-HwBfJOyVTgj-34" value="Начало&lt;br&gt;" style="html=1;dashed=0;whitespace=wrap;shape=mxgraph.dfd.start" vertex="1" parent="1">
          <mxGeometry x="50" y="110" width="160" height="50" as="geometry" />
        </mxCell>
        <mxCell id="I8Duu_z_-HwBfJOyVTgj-35" style="edgeStyle=orthogonalEdgeStyle;rounded=0;orthogonalLoop=1;jettySize=auto;html=1;exitX=0.5;exitY=1;exitDx=0;exitDy=0;entryX=0.5;entryY=0;entryDx=0;entryDy=0;endArrow=none;endFill=0;" edge="1" parent="1" source="I8Duu_z_-HwBfJOyVTgj-36" target="I8Duu_z_-HwBfJOyVTgj-38">
          <mxGeometry relative="1" as="geometry" />
        </mxCell>
        <mxCell id="I8Duu_z_-HwBfJOyVTgj-36" value="n = len(slice) - 1" style="html=1;dashed=0;whitespace=wrap;" vertex="1" parent="1">
          <mxGeometry x="50" y="180" width="160" height="50" as="geometry" />
        </mxCell>
        <mxCell id="I8Duu_z_-HwBfJOyVTgj-37" style="edgeStyle=orthogonalEdgeStyle;rounded=0;orthogonalLoop=1;jettySize=auto;html=1;exitX=0.5;exitY=1;exitDx=0;exitDy=0;entryX=0.5;entryY=0;entryDx=0;entryDy=0;endArrow=none;endFill=0;" edge="1" parent="1" source="I8Duu_z_-HwBfJOyVTgj-38" target="I8Duu_z_-HwBfJOyVTgj-40">
          <mxGeometry relative="1" as="geometry" />
        </mxCell>
        <mxCell id="I8Duu_z_-HwBfJOyVTgj-38" value="i; i &amp;lt; lenl" style="shape=loopLimit;whiteSpace=wrap;html=1;" vertex="1" parent="1">
          <mxGeometry x="50" y="250" width="160" height="50" as="geometry" />
        </mxCell>
        <mxCell id="I8Duu_z_-HwBfJOyVTgj-39" style="edgeStyle=orthogonalEdgeStyle;rounded=0;orthogonalLoop=1;jettySize=auto;html=1;exitX=0.5;exitY=1;exitDx=0;exitDy=0;endArrow=none;endFill=0;" edge="1" parent="1" source="I8Duu_z_-HwBfJOyVTgj-40">
          <mxGeometry relative="1" as="geometry">
            <mxPoint x="130" y="390" as="targetPoint" />
          </mxGeometry>
        </mxCell>
        <mxCell id="I8Duu_z_-HwBfJOyVTgj-40" value="j = i; j &amp;lt; n" style="shape=loopLimit;whiteSpace=wrap;html=1;" vertex="1" parent="1">
          <mxGeometry x="50" y="320.5" width="160" height="50" as="geometry" />
        </mxCell>
        <mxCell id="I8Duu_z_-HwBfJOyVTgj-41" style="edgeStyle=orthogonalEdgeStyle;rounded=0;orthogonalLoop=1;jettySize=auto;html=1;exitX=1;exitY=0.5;exitDx=0;exitDy=0;entryX=0.5;entryY=0;entryDx=0;entryDy=0;endArrow=none;endFill=0;" edge="1" parent="1" source="I8Duu_z_-HwBfJOyVTgj-43" target="I8Duu_z_-HwBfJOyVTgj-45">
          <mxGeometry relative="1" as="geometry" />
        </mxCell>
        <mxCell id="I8Duu_z_-HwBfJOyVTgj-42" style="edgeStyle=orthogonalEdgeStyle;rounded=0;orthogonalLoop=1;jettySize=auto;html=1;exitX=0;exitY=0.5;exitDx=0;exitDy=0;entryX=0.5;entryY=1;entryDx=0;entryDy=0;" edge="1" parent="1" source="I8Duu_z_-HwBfJOyVTgj-43">
          <mxGeometry relative="1" as="geometry">
            <mxPoint x="130" y="550" as="targetPoint" />
            <Array as="points">
              <mxPoint x="30" y="416" />
              <mxPoint x="30" y="530" />
              <mxPoint x="130" y="530" />
            </Array>
          </mxGeometry>
        </mxCell>
        <mxCell id="I8Duu_z_-HwBfJOyVTgj-43" value="slice[j] &amp;gt; slice[j + 1]" style="shape=rhombus;html=1;dashed=0;whitespace=wrap;perimeter=rhombusPerimeter;" vertex="1" parent="1">
          <mxGeometry x="50" y="390.5" width="160" height="50" as="geometry" />
        </mxCell>
        <mxCell id="I8Duu_z_-HwBfJOyVTgj-44" style="edgeStyle=orthogonalEdgeStyle;rounded=0;orthogonalLoop=1;jettySize=auto;html=1;exitX=0.5;exitY=1;exitDx=0;exitDy=0;endArrow=classic;endFill=1;" edge="1" parent="1" source="I8Duu_z_-HwBfJOyVTgj-45">
          <mxGeometry relative="1" as="geometry">
            <mxPoint x="130" y="550" as="targetPoint" />
          </mxGeometry>
        </mxCell>
        <mxCell id="I8Duu_z_-HwBfJOyVTgj-45" value="slice[j], slice[j + 1] &lt;br&gt;=&lt;br&gt;slice[j + 1], slice[j]" style="html=1;dashed=0;whitespace=wrap;" vertex="1" parent="1">
          <mxGeometry x="160" y="460" width="150" height="50" as="geometry" />
        </mxCell>
        <mxCell id="I8Duu_z_-HwBfJOyVTgj-46" value="Да" style="text;html=1;align=center;verticalAlign=middle;resizable=0;points=[];autosize=1;strokeColor=none;fillColor=none;" vertex="1" parent="1">
          <mxGeometry x="200" y="388" width="40" height="30" as="geometry" />
        </mxCell>
        <mxCell id="I8Duu_z_-HwBfJOyVTgj-47" style="edgeStyle=orthogonalEdgeStyle;rounded=0;orthogonalLoop=1;jettySize=auto;html=1;exitX=0.5;exitY=0;exitDx=0;exitDy=0;entryX=0.5;entryY=1;entryDx=0;entryDy=0;endArrow=none;endFill=0;" edge="1" parent="1" source="I8Duu_z_-HwBfJOyVTgj-48">
          <mxGeometry relative="1" as="geometry">
            <mxPoint x="130" y="620" as="targetPoint" />
          </mxGeometry>
        </mxCell>
        <mxCell id="I8Duu_z_-HwBfJOyVTgj-48" value="Конец j" style="shape=loopLimit;whiteSpace=wrap;html=1;direction=west;" vertex="1" parent="1">
          <mxGeometry x="50" y="550" width="160" height="50" as="geometry" />
        </mxCell>
        <mxCell id="I8Duu_z_-HwBfJOyVTgj-49" value="А" style="shape=ellipse;html=1;dashed=0;whitespace=wrap;aspect=fixed;perimeter=ellipsePerimeter;" vertex="1" parent="1">
          <mxGeometry x="95" y="620" width="70" height="70" as="geometry" />
        </mxCell>
        <mxCell id="I8Duu_z_-HwBfJOyVTgj-50" style="edgeStyle=orthogonalEdgeStyle;rounded=0;orthogonalLoop=1;jettySize=auto;html=1;exitX=0.5;exitY=1;exitDx=0;exitDy=0;endArrow=none;endFill=0;" edge="1" parent="1" source="I8Duu_z_-HwBfJOyVTgj-51" target="I8Duu_z_-HwBfJOyVTgj-53">
          <mxGeometry relative="1" as="geometry" />
        </mxCell>
        <mxCell id="I8Duu_z_-HwBfJOyVTgj-51" value="А" style="shape=ellipse;html=1;dashed=0;whitespace=wrap;aspect=fixed;perimeter=ellipsePerimeter;" vertex="1" parent="1">
          <mxGeometry x="540" y="80" width="70" height="70" as="geometry" />
        </mxCell>
        <mxCell id="I8Duu_z_-HwBfJOyVTgj-52" style="edgeStyle=orthogonalEdgeStyle;rounded=0;orthogonalLoop=1;jettySize=auto;html=1;exitX=0.5;exitY=1;exitDx=0;exitDy=0;entryX=0.5;entryY=0;entryDx=0;entryDy=0;endArrow=none;endFill=0;" edge="1" parent="1" source="I8Duu_z_-HwBfJOyVTgj-53" target="I8Duu_z_-HwBfJOyVTgj-56">
          <mxGeometry relative="1" as="geometry">
            <mxPoint x="575" y="240.5" as="targetPoint" />
          </mxGeometry>
        </mxCell>
        <mxCell id="I8Duu_z_-HwBfJOyVTgj-53" value="k = n; k &amp;gt; i" style="shape=loopLimit;whiteSpace=wrap;html=1;" vertex="1" parent="1">
          <mxGeometry x="495" y="170" width="160" height="50" as="geometry" />
        </mxCell>
        <mxCell id="I8Duu_z_-HwBfJOyVTgj-54" style="edgeStyle=orthogonalEdgeStyle;rounded=0;orthogonalLoop=1;jettySize=auto;html=1;exitX=1;exitY=0.5;exitDx=0;exitDy=0;entryX=0.5;entryY=0;entryDx=0;entryDy=0;endArrow=none;endFill=0;" edge="1" parent="1" source="I8Duu_z_-HwBfJOyVTgj-56" target="I8Duu_z_-HwBfJOyVTgj-58">
          <mxGeometry relative="1" as="geometry" />
        </mxCell>
        <mxCell id="I8Duu_z_-HwBfJOyVTgj-55" style="edgeStyle=orthogonalEdgeStyle;rounded=0;orthogonalLoop=1;jettySize=auto;html=1;exitX=0;exitY=0.5;exitDx=0;exitDy=0;entryX=0.5;entryY=1;entryDx=0;entryDy=0;" edge="1" parent="1" source="I8Duu_z_-HwBfJOyVTgj-56" target="I8Duu_z_-HwBfJOyVTgj-63">
          <mxGeometry relative="1" as="geometry">
            <Array as="points">
              <mxPoint x="475" y="268" />
              <mxPoint x="475" y="380" />
              <mxPoint x="580" y="380" />
            </Array>
          </mxGeometry>
        </mxCell>
        <mxCell id="I8Duu_z_-HwBfJOyVTgj-56" value="slice[k] &amp;lt; slice[k - 1]" style="shape=rhombus;html=1;dashed=0;whitespace=wrap;perimeter=rhombusPerimeter;" vertex="1" parent="1">
          <mxGeometry x="495" y="242.5" width="160" height="50" as="geometry" />
        </mxCell>
        <mxCell id="I8Duu_z_-HwBfJOyVTgj-57" style="edgeStyle=orthogonalEdgeStyle;rounded=0;orthogonalLoop=1;jettySize=auto;html=1;exitX=0.5;exitY=1;exitDx=0;exitDy=0;endArrow=none;endFill=0;" edge="1" parent="1" source="I8Duu_z_-HwBfJOyVTgj-58">
          <mxGeometry relative="1" as="geometry">
            <mxPoint x="580" y="400" as="targetPoint" />
            <Array as="points">
              <mxPoint x="680" y="380" />
              <mxPoint x="581" y="380" />
              <mxPoint x="581" y="400" />
            </Array>
          </mxGeometry>
        </mxCell>
        <mxCell id="I8Duu_z_-HwBfJOyVTgj-58" value="slice[k], slice[k - 1] &lt;br&gt;=&lt;br&gt;slice[k - 1], slice[k]" style="html=1;dashed=0;whitespace=wrap;" vertex="1" parent="1">
          <mxGeometry x="605" y="312" width="150" height="50" as="geometry" />
        </mxCell>
        <mxCell id="I8Duu_z_-HwBfJOyVTgj-59" value="Да" style="text;html=1;align=center;verticalAlign=middle;resizable=0;points=[];autosize=1;strokeColor=none;fillColor=none;" vertex="1" parent="1">
          <mxGeometry x="645" y="240" width="40" height="30" as="geometry" />
        </mxCell>
        <mxCell id="I8Duu_z_-HwBfJOyVTgj-60" style="edgeStyle=orthogonalEdgeStyle;rounded=0;orthogonalLoop=1;jettySize=auto;html=1;exitX=0.5;exitY=1;exitDx=0;exitDy=0;entryX=0.5;entryY=1;entryDx=0;entryDy=0;endArrow=none;endFill=0;" edge="1" parent="1" source="I8Duu_z_-HwBfJOyVTgj-61" target="I8Duu_z_-HwBfJOyVTgj-64">
          <mxGeometry relative="1" as="geometry" />
        </mxCell>
        <mxCell id="I8Duu_z_-HwBfJOyVTgj-61" value="n--" style="html=1;dashed=0;whitespace=wrap;" vertex="1" parent="1">
          <mxGeometry x="500" y="470" width="160" height="50" as="geometry" />
        </mxCell>
        <mxCell id="I8Duu_z_-HwBfJOyVTgj-62" style="edgeStyle=orthogonalEdgeStyle;rounded=0;orthogonalLoop=1;jettySize=auto;html=1;exitX=0.5;exitY=0;exitDx=0;exitDy=0;entryX=0.5;entryY=0;entryDx=0;entryDy=0;endArrow=none;endFill=0;" edge="1" parent="1" source="I8Duu_z_-HwBfJOyVTgj-63" target="I8Duu_z_-HwBfJOyVTgj-61">
          <mxGeometry relative="1" as="geometry" />
        </mxCell>
        <mxCell id="I8Duu_z_-HwBfJOyVTgj-63" value="Конец k" style="shape=loopLimit;whiteSpace=wrap;html=1;direction=west;" vertex="1" parent="1">
          <mxGeometry x="500" y="400" width="160" height="50" as="geometry" />
        </mxCell>
        <mxCell id="I8Duu_z_-HwBfJOyVTgj-64" value="Конец i" style="shape=loopLimit;whiteSpace=wrap;html=1;direction=west;" vertex="1" parent="1">
          <mxGeometry x="500" y="540" width="160" height="50" as="geometry" />
        </mxCell>
      </root>
    </mxGraphModel>
  </diagram>
</mxfile>
